<?xml version="1.0" encoding="UTF-8" standalone="no"?>
<!DOCTYPE svg PUBLIC "-//W3C//DTD SVG 1.1//EN" "http://www.w3.org/Graphics/SVG/1.1/DTD/svg11.dtd">
<svg width="100%" height="100%" viewBox="0 0 94 119" version="1.1" xmlns="http://www.w3.org/2000/svg" xmlns:xlink="http://www.w3.org/1999/xlink" xml:space="preserve" xmlns:serif="http://www.serif.com/" style="fill-rule:evenodd;clip-rule:evenodd;">
    <path d="M9.603,60.469C10.162,77.516 5.644,83.586 3.316,84.49C10.022,111.455 25.436,116.904 32.305,116.259C21.687,103.551 26.484,81.778 30.209,72.48C14.004,66.281 16.006,52.85 19.033,46.909C29.93,46.289 41.968,59.959 44.878,65.124L44.878,91.463L46.974,94.216L48.552,91.463L49.419,65.124C53.889,53.346 69.443,46.909 74.915,46.909C81.621,62.406 70.258,70.413 63.739,72.48C72.959,93.556 66.649,110.447 62.342,116.259C78.827,115.949 88.071,94.95 90.632,84.49C85.323,79.841 83.996,71.705 83.996,68.218C85.952,40.943 80.853,26.376 78.059,22.501C68.559,5.455 51.98,2.226 44.878,2.743C12.397,8.554 8.904,39.161 9.603,60.469Z" style="fill-rule:nonzero;stroke:black;stroke-width:5px;"/>
</svg>
