<svg width="94" height="119" viewBox="0 0 94 119" fill="none" xmlns="http://www.w3.org/2000/svg">
<path d="M9.60273 60.4692C10.1616 77.516 5.64441 83.5857 3.31598 84.4897C10.0218 111.455 25.436 116.904 32.3049 116.259C21.6873 103.551 26.4838 81.7777 30.2093 72.4795C14.0035 66.2806 16.0059 52.8498 19.0329 46.9093C29.9299 46.2894 41.9679 59.9585 44.8784 65.1242V91.4634L46.974 94.216L48.552 91.4634L49.4188 65.1242C53.8894 53.3464 69.4433 46.9093 74.9151 46.9093C81.621 62.4064 70.2582 70.4132 63.7387 72.4795C72.9592 93.5555 66.6492 110.447 62.3416 116.259C78.8269 115.949 88.0707 94.9503 90.632 84.4897C85.3232 79.8406 83.996 71.7046 83.996 68.2178C85.9518 40.9429 80.8526 26.3756 78.0585 22.5013C68.5585 5.45452 51.9801 2.22595 44.8784 2.74252C12.3968 8.55394 8.9042 39.1607 9.60273 60.4692Z" fill="white" stroke="white" stroke-width="5"/>
</svg>
