<?xml version="1.0" encoding="UTF-8" standalone="no"?>
<!DOCTYPE svg PUBLIC "-//W3C//DTD SVG 1.1//EN" "http://www.w3.org/Graphics/SVG/1.1/DTD/svg11.dtd">
<svg width="100%" height="100%" viewBox="0 0 101 101" version="1.1" xmlns="http://www.w3.org/2000/svg" xmlns:xlink="http://www.w3.org/1999/xlink" xml:space="preserve" xmlns:serif="http://www.serif.com/" style="fill-rule:evenodd;clip-rule:evenodd;stroke-linejoin:round;stroke-miterlimit:2;">
    <path d="M50.5,0.004C78.37,0.004 100.996,22.63 100.996,50.5C100.996,78.37 78.37,100.996 50.5,100.996C22.63,100.996 0.004,78.37 0.004,50.5C0.004,22.63 22.63,0.004 50.5,0.004ZM56.284,56.648C67.618,56.648 76.8,65.994 76.8,77.53C76.8,79.45 75.27,81.008 73.383,81.008L28.669,81.008C26.782,81.008 25.252,79.45 25.252,77.53C25.252,65.994 34.434,56.648 45.768,56.648L56.284,56.648ZM51.026,51.026C47.12,51.026 43.374,49.447 40.612,46.635C37.85,43.824 36.298,40.011 36.298,36.035C36.298,32.059 37.85,28.246 40.612,25.435C43.374,22.623 47.12,21.044 51.026,21.044C54.932,21.044 58.678,22.623 61.44,25.435C64.202,28.246 65.754,32.059 65.754,36.035C65.754,40.011 64.202,43.824 61.44,46.635C58.678,49.447 54.932,51.026 51.026,51.026Z"/>
</svg>
