<svg width="101" height="101" viewBox="0 0 101 101" fill="none" xmlns="http://www.w3.org/2000/svg">
<circle cx="50.5" cy="50.5" r="50.496" fill="white"/>
<path d="M51.026 51.026C47.1199 51.026 43.3738 49.4466 40.6118 46.6352C37.8497 43.8239 36.298 40.0109 36.298 36.035C36.298 32.0591 37.8497 28.2461 40.6118 25.4348C43.3738 22.6234 47.1199 21.044 51.026 21.044C54.9322 21.044 58.6783 22.6234 61.4403 25.4348C64.2024 28.2461 65.754 32.0591 65.754 36.035C65.754 40.0109 64.2024 43.8239 61.4403 46.6352C58.6783 49.4466 54.9322 51.026 51.026 51.026ZM56.2844 56.6476C67.6181 56.6476 76.8 65.9936 76.8 77.5296C76.8 79.4503 75.2697 81.008 73.3827 81.008H28.6694C26.7824 81.008 25.252 79.4503 25.252 77.5296C25.252 65.9936 34.434 56.6476 45.7677 56.6476H56.2844Z" fill="#F87171"/>
</svg>
